# Blender 3.4.1
# www.blender.org
mtllib Table Model michael.mtl
o Plane
v -14.093531 8.794016 5.224494
v 12.726198 8.794016 5.224494
v -14.093531 8.794016 -5.131912
v 12.726198 8.794016 -5.131912
v -14.093531 9.488673 5.224494
v 12.726198 9.488673 5.224494
v -14.093531 9.488673 -5.131912
v 12.726198 9.488673 -5.131912
v -14.093531 9.521669 5.224494
v 12.726198 9.521669 5.224494
v -14.093531 9.521669 -5.131912
v 12.726198 9.521669 -5.131912
vn -0.0000 -1.0000 -0.0000
vn 1.0000 -0.0000 -0.0000
vn -1.0000 -0.0000 -0.0000
vn -0.0000 -0.0000 -1.0000
vn -0.0000 -0.0000 1.0000
vn -0.0000 1.0000 -0.0000
vt 0.000000 1.000000
vt 0.526086 0.500000
vt 0.517390 0.000000
vt 0.500000 1.000000
vt 0.534781 0.000000
vt 0.517390 0.500000
vt 0.000000 0.500000
vt 0.526086 0.000000
vt 0.508695 0.500000
vt 0.500000 0.500000
vt 0.534781 0.500000
vt 0.508695 0.000000
vt 0.517785 0.500000
vt 0.509089 0.000000
vt 0.526480 0.000000
vt 0.509089 0.500000
vt 0.517785 0.000000
vt 0.500394 0.500000
vt 0.526480 0.500000
vt 0.500394 0.000000
vt 1.000000 1.000000
vt 0.517390 0.500000
vt 0.508695 0.000000
vt 0.526086 0.000000
vt 0.000000 1.000000
vt 0.508695 0.500000
vt 1.000000 0.000000
vt 0.517390 0.000000
vt 0.500000 0.500000
vt 0.526086 0.500000
vt 0.000000 0.000000
vt 0.500000 0.000000
s 0
usemtl WOOD
f 1/1/1 3/7/1 4/10/1 2/4/1
f 6/15/2 8/19/2 12/30/2 10/24/2
f 2/5/2 4/11/2 8/19/2 6/15/2
f 3/8/3 1/2/3 5/13/3 7/17/3
f 4/12/4 3/9/4 7/18/4 8/20/4
f 1/3/5 2/6/5 6/16/5 5/14/5
f 9/21/6 10/25/6 12/31/6 11/27/6
f 7/17/3 5/13/3 9/22/3 11/28/3
f 8/20/4 7/18/4 11/29/4 12/32/4
f 5/14/5 6/16/5 10/26/5 9/23/5
o Cube
v 10.484767 -1.352362 3.102525
v 10.484767 -1.352362 3.565769
v 10.484767 8.982595 3.102526
v 10.484767 8.982595 3.565770
v 9.960275 -1.352362 3.102525
v 9.960275 -1.352362 3.565769
v 9.960275 8.982595 3.102526
v 9.960275 8.982595 3.565770
vn 1.0000 -0.0000 -0.0000
vn -0.0000 1.0000 -0.0000
vn -1.0000 -0.0000 -0.0000
vn -0.0000 -1.0000 -0.0000
vn -0.0000 -0.0000 -1.0000
vn -0.0000 -0.0000 1.0000
vt 0.375000 0.000000
vt 0.375000 1.000000
vt 0.125000 0.750000
vt 0.625000 0.000000
vt 0.625000 1.000000
vt 0.875000 0.750000
vt 0.375000 0.250000
vt 0.125000 0.500000
vt 0.625000 0.250000
vt 0.875000 0.500000
vt 0.375000 0.750000
vt 0.625000 0.750000
vt 0.375000 0.500000
vt 0.625000 0.500000
s 0
usemtl WOOD
f 13/33/7 15/39/7 16/41/7 14/36/7
f 15/39/8 19/45/8 20/46/8 16/41/8
f 19/45/9 17/43/9 18/44/9 20/46/9
f 17/43/10 13/34/10 14/37/10 18/44/10
f 15/40/11 13/35/11 17/43/11 19/45/11
f 20/46/12 18/44/12 14/38/12 16/42/12
o Cube.002
v -11.777824 8.895642 3.191644
v -11.777824 8.895642 2.728400
v -11.777824 -1.439315 3.191646
v -11.777824 -1.439315 2.728402
v -12.302317 8.895642 3.191644
v -12.302317 8.895642 2.728400
v -12.302317 -1.439315 3.191646
v -12.302317 -1.439315 2.728402
vn 1.0000 -0.0000 -0.0000
vn -0.0000 -1.0000 -0.0000
vn -1.0000 -0.0000 -0.0000
vn -0.0000 1.0000 -0.0000
vn -0.0000 -0.0000 1.0000
vn -0.0000 -0.0000 -1.0000
vt 0.375000 0.000000
vt 0.375000 1.000000
vt 0.125000 0.750000
vt 0.625000 0.000000
vt 0.625000 1.000000
vt 0.875000 0.750000
vt 0.375000 0.250000
vt 0.125000 0.500000
vt 0.625000 0.250000
vt 0.875000 0.500000
vt 0.375000 0.750000
vt 0.625000 0.750000
vt 0.375000 0.500000
vt 0.625000 0.500000
s 0
usemtl WOOD
f 21/47/13 23/53/13 24/55/13 22/50/13
f 23/53/14 27/59/14 28/60/14 24/55/14
f 27/59/15 25/57/15 26/58/15 28/60/15
f 25/57/16 21/48/16 22/51/16 26/58/16
f 23/54/17 21/49/17 25/57/17 27/59/17
f 28/60/18 26/58/18 22/52/18 24/56/18
o Cube.003
v -11.828770 8.949832 -2.977649
v -11.828770 8.949832 -3.440893
v -11.828770 -1.385125 -2.977646
v -11.828770 -1.385125 -3.440890
v -12.353262 8.949832 -2.977649
v -12.353262 8.949832 -3.440893
v -12.353262 -1.385125 -2.977646
v -12.353262 -1.385125 -3.440890
vn 1.0000 -0.0000 -0.0000
vn -0.0000 -1.0000 -0.0000
vn -1.0000 -0.0000 -0.0000
vn -0.0000 1.0000 -0.0000
vn -0.0000 -0.0000 1.0000
vn -0.0000 -0.0000 -1.0000
vt 0.375000 0.000000
vt 0.375000 1.000000
vt 0.125000 0.750000
vt 0.625000 0.000000
vt 0.625000 1.000000
vt 0.875000 0.750000
vt 0.375000 0.250000
vt 0.125000 0.500000
vt 0.625000 0.250000
vt 0.875000 0.500000
vt 0.375000 0.750000
vt 0.625000 0.750000
vt 0.375000 0.500000
vt 0.625000 0.500000
s 0
usemtl WOOD
f 29/61/19 31/67/19 32/69/19 30/64/19
f 31/67/20 35/73/20 36/74/20 32/69/20
f 35/73/21 33/71/21 34/72/21 36/74/21
f 33/71/22 29/62/22 30/65/22 34/72/22
f 31/68/23 29/63/23 33/71/23 35/73/23
f 36/74/24 34/72/24 30/66/24 32/70/24
o Cube.001
v 10.906491 -1.454099 -3.470459
v 10.906491 -1.454099 -3.007215
v 10.906491 8.880858 -3.470459
v 10.906491 8.880858 -3.007215
v 10.381999 -1.454099 -3.470459
v 10.381999 -1.454099 -3.007215
v 10.381999 8.880858 -3.470459
v 10.381999 8.880858 -3.007215
vn 1.0000 -0.0000 -0.0000
vn -0.0000 1.0000 -0.0000
vn -1.0000 -0.0000 -0.0000
vn -0.0000 -1.0000 -0.0000
vn -0.0000 -0.0000 -1.0000
vn -0.0000 -0.0000 1.0000
vt 0.375000 0.000000
vt 0.375000 1.000000
vt 0.125000 0.750000
vt 0.625000 0.000000
vt 0.625000 1.000000
vt 0.875000 0.750000
vt 0.375000 0.250000
vt 0.125000 0.500000
vt 0.625000 0.250000
vt 0.875000 0.500000
vt 0.375000 0.750000
vt 0.625000 0.750000
vt 0.375000 0.500000
vt 0.625000 0.500000
s 0
usemtl WOOD
f 37/75/25 39/81/25 40/83/25 38/78/25
f 39/81/26 43/87/26 44/88/26 40/83/26
f 43/87/27 41/85/27 42/86/27 44/88/27
f 41/85/28 37/76/28 38/79/28 42/86/28
f 39/82/29 37/77/29 41/85/29 43/87/29
f 44/88/30 42/86/30 38/80/30 40/84/30
